<svg xmlns="http://www.w3.org/2000/svg" viewBox="0 0 197.89 30.61"><defs><style>.cls-1{fill:#60b8b8;}.cls-2{fill:none;stroke:#fff;stroke-width:0.38px;}.cls-3{fill:#ff7787;}</style></defs><g id="レイヤー_2" data-name="レイヤー 2"><g id="レイヤー_1-2" data-name="レイヤー 1"><path d="M132.85,12.5s.39.1.39.44-.26.41-.41.41h-4.46c.07-.58,1.51-.32,1.47-.17-.22.83-.71,2.86-1.51,5.19a14.67,14.67,0,0,1-3.26,5.49,26.73,26.73,0,0,1,5.57,5.84c0,.13.05.29-.08.25s-.68-.81-1.13-1.3a26.63,26.63,0,0,0-4.49-4.43c-3.4,4.68-8.91,5.53-11,5.78h-.07c6.59-2,8.45-5.34,9.53-6.83a27.52,27.52,0,0,0-5-2.32s.17.06-.24-.06-.29-.27-.34-.23.14-.06.35-.83a36,36,0,0,0,1.82-6.37H115.4c-1.07,0-1.92.12-1.92-.38s1.46-.43,6.69-.43c.28,0,1.4-5.1,1.75-7.44l3.49,0c-.75,3.26-2.37,6.21-2.78,7.46m4.13.84c-6.82,0-3.23-.74-8.46,7a25.63,25.63,0,0,1,5.41,2.36,22.46,22.46,0,0,0,3.17-9.36Z"/><path d="M141.48,30.2s6.62-8.47,3.28-14.36l-9.18.05h-1.76v-.46h10.85C144,12.84,143.31,13,143.22,12h0c2.19-2.54,4.29-3.15,5.22-4.61H136.89V6.92h14.24c.19,0,.25.12.13.36,0,0-1,1.35-1.1,1.47-1.47,1.54-4.88,2.11-6.47,3.4h0a.71.71,0,0,0,.44.64,10.28,10.28,0,0,1,2.58,2.71s4.61-.05,4.61-.05h2.6s.3,0,.3.24-.3.22-.33.22H147c2.41,4.41,2.7,7.35-.88,11.34-.89,1-2.84,2.75-4.61,3"/><path d="M174.72,6.44V7h0v23.1h-.87c-.38,0-.18,0-.45,0H156.69V6.44h16.47M159,7.14V29.72l13.1-.18V7Zm12.25,4a40.71,40.71,0,0,1-5.14,9.34,28.3,28.3,0,0,1,5,4.95c.06.26-.36.26-.36.26a19,19,0,0,1-1.3-1.44,25.44,25.44,0,0,0-3.68-3.44,22.59,22.59,0,0,1-6.46,5.58h0A21,21,0,0,0,164.91,20a39.51,39.51,0,0,0-5.28-3.47h0A32.59,32.59,0,0,1,163,18.16c1.4.77,3,0,3.71-1.7a32.86,32.86,0,0,0,1.94-7.65l3,1.18M163.8,8.81c1.2.91,2.39,4.23,2.59,5,0,.17.24,1,0,1s-.36-.24-.87-1.89a16.83,16.83,0,0,0-1.9-3.84Zm-2.11.56c1.2.91,2.39,4.23,2.59,5,.05.17.24,1-.05,1s-.35-.24-.87-1.89a17.15,17.15,0,0,0-1.89-3.84Z"/><path d="M184.83,17.72s.5,0,.5.29-.46.26-.46.26h-1.68V26.1c.49-.17,1.83-.83,2.25-1h0c-2,1.21-6.34,4.27-6.88,4.55h0a1.91,1.91,0,0,1-.32-.64l-.18-.54A19.85,19.85,0,0,0,181,27V19.81a1.42,1.42,0,0,0-1.25-1.54h-1.67v-.55H181V13.27h-1.89V13c-.71.78-1.22,1.07-1.91,1.79h0c2.84-4.32,3.12-7.45,3-8.95h2.77c1.9,3.55,1.92,5.41,1.89,5.33s0,.32,0,.35-.11-.3-.11-.3,0-1.73-1.8-5.1a17.88,17.88,0,0,1-3.66,6.7c.58,0,1.18,0,2,0h3.21s.55,0,.54.26-.33.21-.51.21h-1.36v4.45m-4.75,2.18a9.17,9.17,0,0,1,1.86,4c.16.94,0,1.19-.15,1.19s-.31-.13-.44-1.26a11.88,11.88,0,0,0-1.27-3.91Zm6.89-.08h0a13.65,13.65,0,0,1-.71,2.15A27.32,27.32,0,0,1,183,24.8h0a14.39,14.39,0,0,0,1.64-5ZM195.57,21c0,.11,0-.05,0,.15v7.13h2.13a.25.25,0,0,1,.19.26c0,.27-.17.33-.58.33H184.52v-.6h1.72V23.15c0-1.78,0-2.17,0-2.17H195M191.5,7.35s.42,0,.42.25-.35.22-.49.22h-2.34v2.92h2.08v3.79h-2.08v3.72h2.34s.52.06.52.29-.38.29.11.29h-6.53V8.89c0-.69,0-1.07,0-1.54h4.28m-2.06.47v2.92h.92V7.82Zm0,3.43V14h.71a2.52,2.52,0,0,0,2.22-2.74h-2.93Zm0,3.28v3.72h.92V14.53Zm.44,7v6.75h1.43V21.51Zm1.8,0v6.75h1.65V21.51ZM195.1,6.68a19.34,19.34,0,0,1-1.31,3.66h3.38s.46,0,.46.23-.35.33-.53.33h-3.54a9.76,9.76,0,0,1-1.88,2.55h0A30.76,30.76,0,0,0,193,5.81h2.24M197,15.69s.49,0,.49.28-.28.27-.46.27h-4.9v-.55h2.05m-.66,12.57V21.51H192v6.75Z"/><path d="M60.14,15.32h-.61c-1.75-5.37-2.76-7.57-5.7-7.57h-.39V29.4h2.75v.69H44.37V29.4h2.75V7.75H46.7c-2.94,0-4,2.46-5.69,7.57h-.62l.32-8.27H59.82Z"/><path d="M68.85,14.1c5.08,0,7.25,2.6,7.06,7.5H66.78v1.29c0,3.88.68,6.51,3.82,6.51,2.39,0,4-1.54,4.72-4.08l.59.1c-.75,2.83-2.43,5-7,5-5.76,0-8.35-3.35-8.35-8.13C60.53,16.6,64.35,14.1,68.85,14.1Zm1.29,6.84V19.33c0-3.46-.26-4.61-1.58-4.61-1.14,0-1.75,1.12-1.75,4.61v1.61Z"/><path d="M83.48,21.5v1.71c0,4.22.75,6.09,3.27,6.09,3,0,4.21-2.53,4.57-4.31l.58.07c-.42,2-1.49,5.36-6.9,5.36-5,0-7.77-2.83-7.77-8,0-5.53,3.3-8.36,8.65-8.36,4,0,5.92,1.71,5.92,4.18,0,2-1.07,3.09-2.68,3.09a2.58,2.58,0,0,1-2.89-2.73,4.44,4.44,0,0,1,.17-1.18h1.06a3.48,3.48,0,0,0,.23-1.19,1.41,1.41,0,0,0-1.55-1.58C84.26,14.69,83.48,16.6,83.48,21.5Z"/><path d="M100.51,5.41V17.46c.55-1.65,1.62-3.36,4.82-3.36,3,0,5,1.51,5,5.49V29.5h1.82v.59H103V29.5h1.33V18.8c0-2.79-.39-3.12-1.2-3.12-1.36,0-2.62,2.07-2.62,4.74V29.5h1.39v.59H92.71V29.5h1.78V6H92.71V5.41Z"/><rect class="cls-1" x="0.19" y="5.2" width="33.2" height="25.23" rx="4.23"/><rect class="cls-2" x="0.19" y="5.2" width="33.2" height="25.23" rx="4.23"/><path class="cls-3" d="M30.35,25.44l-12.22,5A1.36,1.36,0,0,1,16.79,29V6.55a1.36,1.36,0,0,1,1.34-1.38l12.22-5a1.36,1.36,0,0,1,1.34,1.38V24.06A1.36,1.36,0,0,1,30.35,25.44Z"/><path class="cls-2" d="M30.35,25.44l-12.22,5A1.36,1.36,0,0,1,16.79,29V6.55a1.36,1.36,0,0,1,1.34-1.38l12.22-5a1.36,1.36,0,0,1,1.34,1.38V24.06A1.36,1.36,0,0,1,30.35,25.44Z"/></g></g></svg>